<svg width="1579" height="899" viewBox="0 0 1579 899" fill="none" xmlns="http://www.w3.org/2000/svg">
<path fill-rule="evenodd" clip-rule="evenodd" d="M368.539 154.781C368.54 154.78 368.548 154.793 368.564 154.819C368.547 154.794 368.539 154.781 368.539 154.781ZM377.276 222.068C367.966 282.678 352.608 431.312 352.608 512.669C352.608 557.242 353.348 631.56 354.095 695.111C354.468 726.805 354.841 755.689 355.12 776.65C355.26 787.129 355.377 795.626 355.458 801.501C355.499 804.439 355.531 806.72 355.553 808.266L355.586 810.616C355.586 810.617 355.586 810.618 275.594 811.761L355.586 810.618C356.21 854.299 321.678 890.404 278.013 891.725C234.348 893.046 197.696 859.094 195.679 815.455C192.694 750.853 185.819 600.448 182.229 516.07C180.226 469.006 176.05 409.122 172.036 353.266C171.183 388.885 170.044 429.148 168.923 466.607C167.8 504.086 166.678 539.25 165.836 565.039C165.416 577.936 165.065 588.493 164.819 595.83C164.696 599.498 164.6 602.362 164.534 604.31L164.451 606.768L159.982 820.12C159.057 864.293 122.498 899.353 78.3248 898.428C34.1517 897.503 -0.907718 860.943 0.0174072 816.77L4.50772 602.366L4.52573 601.838L84.4791 604.569C4.52573 601.838 4.52575 601.838 4.52581 601.836L4.62548 598.9C4.69079 596.969 4.78671 594.125 4.90886 590.476C5.15316 583.179 5.50234 572.668 5.92144 559.822C6.75977 534.126 7.87718 499.112 8.99424 461.817C11.2477 386.583 13.4376 304.003 13.4376 268.716C13.4376 267.381 13.4367 266.012 13.4358 264.61C13.4136 230.595 13.3789 177.526 25.8104 132.244C32.5177 107.812 44.7147 78.0465 69.0042 53.766C95.5415 27.2385 130.535 13.2703 169.585 13.2703C215.411 13.2703 249.108 32.6862 272.363 57.4473C297.086 25.9464 338.776 -6.45851 400.427 2.38429C465.422 11.7067 500.737 55.7495 517.217 95.2711C531.495 129.511 534.444 166.133 535.865 183.768C535.91 184.323 535.953 184.86 535.995 185.377C537.851 208.224 537.735 277.458 537.376 340.603C537.19 373.275 536.917 405.692 536.688 432.982C536.449 461.319 536.257 484.129 536.257 495.96C536.257 517.519 538.786 594.518 541.432 668.547C542.736 705.028 544.04 740.06 545.019 765.978C545.508 778.935 545.916 789.61 546.201 797.043C546.344 800.76 546.456 803.666 546.532 805.641L546.649 808.653C546.649 808.655 546.649 808.656 466.709 811.761C386.769 814.867 386.769 814.866 386.769 814.864L386.769 814.854L386.651 811.817C386.574 809.829 386.462 806.909 386.319 803.178C386.032 795.717 385.624 785.009 385.133 772.015C384.152 746.03 382.843 710.884 381.534 674.263C378.954 602.087 376.257 521.186 376.257 495.96C376.257 483.784 376.459 459.702 376.704 430.36C376.933 402.926 377.201 370.892 377.379 339.692C377.65 292.03 377.674 248.59 377.276 222.068ZM466.709 811.761L386.769 814.867C388.485 859.017 425.665 893.416 469.815 891.701C513.964 889.986 548.364 852.805 546.649 808.656L466.709 811.761ZM155.443 166.47C155.444 166.469 155.462 166.493 155.497 166.545C155.46 166.497 155.443 166.471 155.443 166.47Z" fill="#FF8C35"/>
<path fill-rule="evenodd" clip-rule="evenodd" d="M1020.14 80.3854C1020.43 124.567 984.845 160.617 940.663 160.904C904.17 161.142 850.507 167.933 808.755 184.88C790.466 192.304 778.946 199.517 771.712 206.043C782.045 202.183 792.211 198.969 802.001 196.367C847.174 184.365 896.364 181.177 938.826 190.494C974.642 198.353 1044.34 226.506 1048.62 304.244C1050.7 341.991 1034.07 372.937 1011.52 393.587C993.847 409.763 973.16 419.411 954.654 425.339C974.421 428.543 997.027 435.329 1017.29 449.568C1043.59 468.039 1063.86 498.166 1065.25 536.849C1066.63 575.354 1048.76 606.163 1025.87 626.295C1004.94 644.711 980 654.546 958.738 660.011C915.754 671.058 864.745 670.15 817.413 660.341C803.954 657.552 790.133 653.907 776.283 649.298C765.317 664.136 759.734 679.941 759.734 695.454C759.734 713.871 764.713 719.529 766.502 721.432C769.741 724.876 777.657 730.474 794.972 734.376C831.524 742.612 882.312 737.05 919.284 727.065C961.938 715.545 1005.86 740.785 1017.38 783.439C1028.9 826.094 1003.66 870.011 961.001 881.531C911.17 894.989 831.754 906.675 759.802 890.463C722.866 882.14 681.955 865.091 649.93 831.026C616.455 795.419 599.734 748.707 599.734 695.454C599.734 641.383 617.009 596.314 643.239 559.543C616.937 525.345 599.734 482.226 599.734 430.88C599.734 388.774 610.097 352.93 626.938 322.754C609.795 295.742 598.954 263.064 599.751 224.917C601.977 118.462 684.595 62.5993 748.578 36.628C814.979 9.67524 890.315 1.22826 939.622 0.907491C983.804 0.620061 1019.85 36.2035 1020.14 80.3854ZM760.918 418.793C760.126 422.775 759.734 426.813 759.734 430.88C759.734 441.58 762.308 450.635 767.82 458.939C780.39 452.917 792.776 447.82 804.61 443.616C814.231 440.199 824.049 437.135 833.964 434.473C826.248 433.61 818.593 432.512 811.054 431.197C794.757 428.354 777.818 424.29 760.918 418.793ZM931.381 583.77C931.379 583.772 931.302 583.751 931.156 583.7C931.31 583.742 931.383 583.767 931.381 583.77ZM910.366 348.415C910.325 348.431 909.857 348.286 909.085 347.936C910.021 348.225 910.407 348.4 910.366 348.415ZM908.057 272.153C908.146 272.107 908.193 272.086 908.194 272.087C908.195 272.088 908.151 272.111 908.057 272.153Z" fill="#75E658"/>
<path fill-rule="evenodd" clip-rule="evenodd" d="M1300.65 119.739C1300.65 119.747 1300.64 119.755 1300.64 119.765C1300.56 119.908 1300.36 120.276 1300.06 120.854C1299.46 122.014 1298.46 123.988 1297.2 126.64C1294.66 132.008 1291.24 139.803 1287.99 148.997C1280.9 169.047 1277.24 188.362 1278.59 202.216C1279.59 212.384 1283.43 218.193 1287.61 222.369C1290 224.757 1292.64 226.679 1295.04 228.06C1296.71 229.027 1297.78 229.448 1297.96 229.526C1311.73 233.451 1323.87 240.885 1333.45 250.762C1333.26 249.632 1333.08 248.501 1332.91 247.367C1323.08 183.28 1340.07 128.254 1357.21 91.6585C1365.91 73.0744 1375.17 58.1015 1382.42 47.5491C1386.06 42.2367 1389.28 37.9415 1391.76 34.761C1393 33.1679 1394.07 31.8457 1394.93 30.8066C1395.36 30.2868 1395.73 29.837 1396.05 29.4586C1396.21 29.2694 1396.36 29.0979 1396.49 28.9445C1396.56 28.8677 1396.62 28.7955 1396.68 28.7277L1396.76 28.6295L1396.8 28.5829C1396.82 28.5604 1396.84 28.5383 1455.97 79.7601L1396.84 28.538C1425.77 -4.8564 1476.29 -8.47561 1509.69 20.4542C1542.88 49.2044 1546.66 99.281 1518.31 132.678C1518.23 132.776 1518.08 132.962 1517.87 133.232C1517.2 134.09 1515.93 135.758 1514.3 138.143C1510.97 142.985 1506.4 150.344 1502.11 159.507C1493.26 178.405 1487.6 200.537 1491.06 223.104C1494.04 242.552 1498.1 254.121 1501 260.429C1522.85 266.389 1541.67 281.499 1551.96 302.733C1566.79 333.339 1560.65 369.976 1536.65 394.073C1529.7 401.047 1517 416.112 1506.55 433.996C1495.36 453.136 1491.99 466.586 1491.99 472.644C1491.99 472.635 1491.99 472.651 1492 472.694C1492.14 473.456 1493.84 482.572 1507.03 499.257C1519.56 515.097 1535.22 528.526 1544.26 534.912C1563.84 548.748 1576.19 570.639 1577.89 594.556C1579.56 617.963 1570.87 640.895 1554.17 657.308C1553.89 657.667 1553.26 658.476 1552.36 659.813C1550.45 662.66 1548.01 666.845 1545.64 672.135C1540.86 682.847 1537.31 695.966 1537.31 710.052C1537.31 717.695 1540.37 727.01 1546.21 736.708C1548.91 741.176 1551.6 744.723 1553.44 746.957C1554.31 748.008 1554.92 748.683 1555.15 748.936C1585.77 780.074 1585.78 830.141 1554.96 861.284C1523.89 892.691 1473.24 892.959 1441.83 861.883L1496.18 806.95C1441.83 861.883 1441.81 861.864 1441.79 861.846L1441.75 861.807L1441.67 861.726L1441.5 861.552C1441.37 861.431 1441.24 861.299 1441.1 861.155C1440.82 860.868 1440.49 860.537 1440.13 860.162C1439.41 859.413 1438.53 858.487 1437.52 857.39C1435.5 855.202 1432.93 852.306 1430 848.756C1424.2 841.716 1416.69 831.761 1409.19 819.313C1394.64 795.181 1377.31 757.014 1377.31 710.052C1377.31 674.777 1384.93 642.608 1395.91 615.456C1391.01 610.056 1386.19 604.391 1381.52 598.491C1359.57 570.722 1331.99 526.236 1331.99 472.644C1331.99 425.285 1351.27 382.598 1368.41 353.267C1368.73 352.716 1369.05 352.166 1369.38 351.618C1363.81 342.682 1358.78 333.062 1354.32 322.898C1350.04 343.261 1337.89 361.573 1319.85 373.387C1316.58 375.525 1305.26 384.829 1295.17 400.528C1285.63 415.37 1278.97 433.097 1278.97 453.355C1278.97 473.383 1285.47 489.576 1294.14 502.397C1298.55 508.923 1303.39 514.333 1307.8 518.457C1309.98 520.499 1311.92 522.098 1313.47 523.266C1314.24 523.844 1314.87 524.282 1315.33 524.592C1315.8 524.907 1316.04 525.048 1316.04 525.046C1341.2 539.58 1356.5 566.61 1356.01 595.659C1355.52 624.708 1339.32 651.209 1313.69 664.89C1313.73 664.869 1313.69 664.897 1313.59 664.975C1312.63 665.657 1306.29 670.173 1300.43 679.115C1294.81 687.702 1290.1 699.598 1290.96 716.372C1291.52 727.453 1295.91 734.058 1301.09 739.172C1303.93 741.972 1306.78 743.996 1308.68 745.179C1309.21 745.513 1309.62 745.744 1309.85 745.873C1349.04 764.137 1366.73 810.435 1349.37 850.309C1331.73 890.818 1284.59 909.357 1244.08 891.718L1275.2 820.262C1244.08 891.717 1244.05 891.703 1244.01 891.688L1243.94 891.657L1243.8 891.592C1243.7 891.549 1243.59 891.503 1243.48 891.455C1243.34 891.393 1243.2 891.327 1243.04 891.258C1242.96 891.22 1242.88 891.182 1242.79 891.142C1242.29 890.917 1241.73 890.658 1241.11 890.365C1239.87 889.777 1238.38 889.048 1236.68 888.17C1233.29 886.42 1228.99 884.047 1224.09 880.989C1214.37 874.939 1201.66 865.834 1188.71 853.054C1162.32 827.008 1134.23 784.647 1131.16 724.506C1128.48 671.69 1143.2 628.571 1163.99 595.481C1138.89 559.825 1118.97 512.211 1118.97 453.355C1118.97 398.787 1136.14 353.069 1158.39 317.45C1138.72 292.302 1123.44 259.506 1119.36 217.805C1114.67 169.934 1126.87 124.704 1137.15 95.6394C1142.59 80.2763 1148.23 67.3723 1152.59 58.1801C1154.78 53.5525 1156.68 49.7811 1158.12 47.0161C1158.84 45.6315 1159.44 44.4926 1159.92 43.6182C1160.15 43.1808 1160.36 42.8089 1160.53 42.5048C1160.61 42.3528 1160.68 42.2176 1160.75 42.0996L1160.84 41.9355L1160.9 41.8295C1160.91 41.8133 1160.92 41.7974 1230.7 80.9201L1160.92 41.7974C1182.53 3.25828 1231.28 -10.468 1269.82 11.1389C1308.26 32.6891 1322.02 81.2481 1300.65 119.739ZM1308.11 745.089L1308.09 745.081L1308.05 745.061C1308.07 745.07 1308.09 745.08 1308.11 745.089ZM1554.4 748.185L1554.42 748.207L1554.4 748.185ZM1517.82 133.252L1517.81 133.259L1517.82 133.252Z" fill="#FF6EC5"/>
</svg>
