<svg width="234" height="87" viewBox="0 0 234 87" fill="none" xmlns="http://www.w3.org/2000/svg">
<path id="m vec4" d="M30.849 20.5046C31.7228 12.2665 25.753 4.87985 17.515 4.00597C9.27691 3.13207 1.89023 9.10191 1.01634 17.34L30.849 20.5046ZM91.2361 21.576L106.235 21.4414C106.167 13.8116 100.382 7.44897 92.793 6.65703C85.2041 5.86509 78.2299 10.8963 76.5876 18.3475L91.2361 21.576ZM162.432 21.576L177.41 22.3894C177.855 14.1984 171.637 7.16924 163.453 6.61081C155.269 6.05238 148.154 12.1718 147.482 20.3474L162.432 21.576ZM232.803 13.1611C231.788 4.93934 224.299 -0.902437 216.077 0.113143C207.856 1.12871 202.014 8.61708 203.029 16.8389L232.803 13.1611ZM1.01634 17.34C0.0115823 26.8117 0.476927 41.4387 6.02183 54.4642C8.86875 61.1519 13.3075 67.9932 20.1486 73.2169C27.1568 78.5683 35.8356 81.5623 45.8652 81.6885L46.2428 51.6909C42.2158 51.6402 39.8919 50.5467 38.3553 49.3733C36.6515 48.0723 35.0033 45.9518 33.6248 42.7137C30.719 35.8877 30.1803 26.8079 30.849 20.5046L1.01634 17.34ZM45.8652 81.6885C66.0939 81.9431 80.5664 70.9532 89.7528 59.1948C98.7808 47.6391 103.84 34.0822 105.885 24.8045L76.5876 18.3475C75.2856 24.2552 71.8102 33.432 66.1122 40.7253C60.5726 47.8159 54.1274 51.7901 46.2428 51.6909L45.8652 81.6885ZM76.2367 21.7106C76.3256 31.6172 78.331 46.6779 84.6807 59.8078C91.1748 73.2361 103.838 87.2796 125.208 86.9959L124.809 56.9986C119.526 57.0687 115.379 54.3789 111.688 46.7467C107.853 38.8162 106.299 28.4893 106.235 21.4414L76.2367 21.7106ZM125.208 86.9959C146 86.7199 159.048 73.1948 166.297 60.2162C173.477 47.3632 176.575 32.6144 177.382 22.8046L147.482 20.3474C146.92 27.1973 144.633 37.4822 140.106 45.5864C135.649 53.565 130.67 56.9208 124.809 56.9986L125.208 86.9959ZM147.454 20.7626C146.94 30.2305 147.558 44.8014 151.625 57.6241C155.413 69.5679 164.849 86.9972 185.708 86.9972L185.708 56.9972C185.099 56.9972 184.797 56.9536 184.061 56.1752C182.967 55.019 181.516 52.6364 180.221 48.5545C177.625 40.3683 177.011 29.7286 177.41 22.3894L147.454 20.7626ZM185.708 86.9972C199.654 86.9972 210.633 81.7196 218.396 73.1834C225.698 65.1538 229.308 55.1998 231.178 46.7325C233.079 38.122 233.455 29.7781 233.402 23.7745C233.376 20.7263 233.237 18.1689 233.101 16.3371C233.033 15.419 232.965 14.6767 232.91 14.1391C232.883 13.8702 232.86 13.6519 232.841 13.4878C232.832 13.4058 232.824 13.3372 232.818 13.2827C232.815 13.2554 232.812 13.2316 232.809 13.2113C232.808 13.2012 232.807 13.1919 232.806 13.1835C232.805 13.1794 232.805 13.1737 232.804 13.1717C232.804 13.1663 232.803 13.1611 217.916 15C203.029 16.8389 203.029 16.8341 203.028 16.8296C203.028 16.8284 203.028 16.8241 203.027 16.8217C203.027 16.8168 203.026 16.8127 203.026 16.8095C203.025 16.803 203.025 16.7999 203.025 16.8C203.025 16.8002 203.026 16.8134 203.029 16.8392C203.035 16.8908 203.046 16.9926 203.061 17.1411C203.091 17.4384 203.136 17.9207 203.183 18.5611C203.279 19.8464 203.384 21.7419 203.404 24.0371C203.445 28.7205 203.128 34.6259 201.883 40.2647C200.607 46.0468 198.618 50.342 196.201 52.9995C194.245 55.1503 191.386 56.9972 185.708 56.9972L185.708 86.9972Z" fill="#FF323A"/>
</svg>
