<svg width="131" height="276" viewBox="0 0 131 276" fill="none" xmlns="http://www.w3.org/2000/svg">
<path id="m vec3" d="M39.4786 22.3355C43.5299 15.1094 40.9562 5.96731 33.7301 1.91603C26.504 -2.13526 17.3619 0.438417 13.3106 7.6645L39.4786 22.3355ZM41.513 90.2354L49.73 102.785C54.6574 99.5582 57.2406 93.7468 56.3344 87.9273C55.4281 82.1078 51.2 77.3571 45.5249 75.7819L41.513 90.2354ZM41.513 186.26L48.5766 199.492C53.3822 196.927 56.4194 191.958 56.5109 186.511C56.6024 181.065 53.7337 175.997 49.017 173.271L41.513 186.26ZM35.5244 274.753C43.1198 278.06 51.9582 274.584 55.2657 266.989C58.5731 259.393 55.097 250.555 47.5016 247.247L35.5244 274.753ZM113.324 24.8216C118.748 18.5602 118.07 9.087 111.808 3.66266C105.547 -1.76169 96.0737 -1.08308 90.6494 5.17836L113.324 24.8216ZM109.546 100.63L120.174 111.215C124.674 106.697 125.825 99.8275 123.045 94.0888C120.264 88.3502 114.159 84.9969 107.824 85.7289L109.546 100.63ZM115.593 188.239L125.9 199.137C129.167 196.048 130.875 191.656 130.555 187.172C130.235 182.687 127.92 178.583 124.248 175.988L115.593 188.239ZM105.043 267.208C110.932 273.035 120.429 272.984 126.256 267.096C132.083 261.207 132.032 251.709 126.144 245.883L105.043 267.208ZM26.3946 15C13.3106 7.6645 13.3089 7.66752 13.3072 7.67063C13.3065 7.67178 13.3047 7.67498 13.3035 7.67729C13.3009 7.68191 13.2981 7.68688 13.2951 7.6922C13.2892 7.70284 13.2825 7.71489 13.275 7.72834C13.26 7.75523 13.2421 7.78769 13.2211 7.82565C13.1793 7.90156 13.1257 7.99947 13.0612 8.11862C12.9323 8.35685 12.7596 8.6805 12.55 9.08347C12.1312 9.8886 11.5625 11.0154 10.9 12.4148C9.58062 15.2018 7.85933 19.1331 6.20589 23.8074C3.00926 32.8442 -0.437031 46.0393 0.883075 59.5239L30.7403 56.6009C30.0447 49.4947 31.8898 41.1586 34.4886 33.8119C35.7328 30.2944 37.0352 27.321 38.0151 25.2511C38.5022 24.222 38.9021 23.4323 39.1644 22.9281C39.2953 22.6764 39.3913 22.4972 39.4459 22.3962C39.4732 22.3457 39.4902 22.3149 39.4959 22.3045C39.4987 22.2993 39.4988 22.2993 39.4959 22.3044C39.4945 22.307 39.4924 22.3108 39.4895 22.316C39.488 22.3186 39.4864 22.3215 39.4846 22.3248C39.4837 22.3264 39.4822 22.3291 39.4817 22.3299C39.4802 22.3327 39.4786 22.3355 26.3946 15ZM0.883075 59.5239C3.69561 88.2532 25.9636 101.486 37.5011 104.689L45.5249 75.7819C41.608 74.6946 31.9594 69.0531 30.7403 56.6009L0.883075 59.5239ZM33.296 77.6863C22.0344 85.0603 0.811707 106.842 0.811707 139.237H30.8117C30.8117 120.156 43.8574 106.63 49.73 102.785L33.296 77.6863ZM0.811707 139.237C0.811707 171.872 22.3103 192.489 34.009 199.248L49.017 173.271C43.5815 170.131 30.8117 158.08 30.8117 139.237H0.811707ZM34.4494 173.027C23.0147 179.131 3.28378 198.079 4.86268 229.095L34.8239 227.569C33.9838 211.068 44.5569 201.638 48.5766 199.492L34.4494 173.027ZM4.86268 229.095C5.70156 245.573 13.3407 257.092 20.5953 264.252C24.1765 267.786 27.6971 270.306 30.3669 271.969C31.7114 272.806 32.8691 273.444 33.7509 273.9C34.1928 274.128 34.5683 274.311 34.8667 274.453C35.016 274.523 35.1463 274.583 35.2562 274.633C35.3112 274.658 35.3612 274.681 35.4059 274.701C35.4283 274.71 35.4493 274.72 35.4691 274.728C35.479 274.733 35.4885 274.737 35.4977 274.741C35.5023 274.743 35.509 274.746 35.5113 274.747C35.5179 274.75 35.5244 274.753 41.513 261C47.5016 247.247 47.508 247.25 47.5142 247.253C47.5162 247.254 47.5224 247.256 47.5264 247.258C47.5344 247.262 47.5421 247.265 47.5494 247.268C47.5642 247.275 47.5779 247.281 47.5904 247.286C47.6155 247.297 47.636 247.307 47.6523 247.314C47.6848 247.329 47.7 247.336 47.6992 247.336C47.6972 247.335 47.632 247.304 47.512 247.242C47.2703 247.117 46.82 246.873 46.2275 246.504C45.0231 245.754 43.3531 244.562 41.6681 242.899C38.3902 239.664 35.1945 234.849 34.8239 227.569L4.86268 229.095ZM101.987 15C90.6494 5.17836 90.6457 5.18258 90.642 5.18689C90.6406 5.18844 90.6368 5.19285 90.6341 5.19596C90.6287 5.20219 90.6231 5.20879 90.6171 5.21574C90.6051 5.22965 90.5919 5.245 90.5775 5.26179C90.5488 5.29536 90.5153 5.33469 90.4772 5.37972C90.4011 5.46975 90.3066 5.58262 90.1951 5.71783C89.9722 5.98814 89.6809 6.3484 89.3325 6.79461C88.6365 7.68594 87.7074 8.92684 86.6369 10.4851C84.5054 13.5881 81.7604 18.0266 79.1799 23.5378C74.0691 34.4529 69.2272 50.4059 72.0418 68.7515L101.695 64.2022C100.075 53.6415 102.792 43.8561 106.349 36.2594C108.102 32.5146 109.969 29.5038 111.365 27.4715C112.058 26.4621 112.622 25.7139 112.978 25.258C113.155 25.0306 113.28 24.8777 113.341 24.8032C113.372 24.7661 113.387 24.7487 113.384 24.7515C113.383 24.753 113.378 24.7595 113.368 24.7712C113.363 24.777 113.356 24.7841 113.349 24.7925C113.346 24.7967 113.342 24.8012 113.337 24.8061C113.335 24.8085 113.332 24.8124 113.331 24.8136C113.328 24.8176 113.324 24.8216 101.987 15ZM72.0418 68.7515C76.786 99.6754 92.6751 117.679 111.268 115.531L107.824 85.7289C110.963 85.3662 110.961 86.9748 108.995 84.7381C107.089 82.5689 103.642 76.8911 101.695 64.2022L72.0418 68.7515ZM98.9181 90.0444C94.3164 94.6646 87.8422 102.471 82.4217 111.747C77.1389 120.786 71.8683 132.891 71.8683 145.672H101.868C101.868 140.635 104.157 134.012 108.323 126.883C112.352 119.99 117.216 114.185 120.174 111.215L98.9181 90.0444ZM71.8683 145.672C71.8683 159.622 79.1363 171.883 85.8737 180.404C92.8736 189.258 101.154 196.404 106.938 200.49L124.248 175.988C120.457 173.31 114.375 168.082 109.407 161.798C104.175 155.181 101.868 149.541 101.868 145.672H71.8683ZM105.286 177.342C97.9736 184.258 86.9867 202.238 86.9867 224.867H116.987C116.987 218.238 118.645 212.237 120.784 207.451C121.848 205.07 122.988 203.087 123.999 201.584C124.503 200.836 124.949 200.243 125.308 199.806C125.486 199.589 125.631 199.423 125.739 199.305C125.85 199.185 125.905 199.133 125.9 199.137L105.286 177.342ZM86.9867 224.867C86.9867 237.661 91.7263 248.285 95.9437 255.281C98.0956 258.851 100.248 261.703 101.895 263.701C102.723 264.705 103.437 265.509 103.978 266.097C104.249 266.391 104.478 266.631 104.658 266.817C104.747 266.91 104.825 266.989 104.889 267.054C104.922 267.087 104.951 267.116 104.976 267.142C104.989 267.154 105.001 267.166 105.012 267.177C105.018 267.183 105.023 267.188 105.028 267.193C105.031 267.196 105.035 267.199 105.036 267.201C105.039 267.204 105.043 267.208 115.593 256.545C126.144 245.883 126.147 245.886 126.15 245.889C126.152 245.891 126.155 245.894 126.157 245.896C126.161 245.9 126.165 245.904 126.169 245.908C126.177 245.916 126.184 245.923 126.19 245.929C126.203 245.942 126.212 245.951 126.219 245.958C126.232 245.971 126.233 245.972 126.223 245.962C126.203 245.942 126.14 245.876 126.039 245.766C125.836 245.546 125.487 245.156 125.04 244.613C124.136 243.517 122.886 241.866 121.636 239.793C119.05 235.503 116.987 230.288 116.987 224.867H86.9867Z" fill="#FF323A"/>
</svg>
