<svg width="260" height="130" viewBox="0 0 260 130" fill="none" xmlns="http://www.w3.org/2000/svg">
<path d="M30.3497 22.9073C30.9165 14.6425 24.6759 7.48304 16.411 6.91631C8.14616 6.34959 0.986741 12.5902 0.420017 20.855L30.3497 22.9073ZM100.782 26.5369L115.782 26.4499C115.737 18.594 109.637 12.1041 101.799 11.5714C93.9615 11.0387 87.0403 16.6437 85.9323 24.4212L100.782 26.5369ZM181.522 26.5369L196.513 27.0631C196.801 18.8365 190.406 11.9142 182.183 11.5514C173.959 11.1887 166.98 17.5211 166.543 25.7411L181.522 26.5369ZM259.396 13.8061C258.736 5.54812 251.507 -0.611781 243.249 0.0475853C234.992 0.706952 228.832 7.9359 229.491 16.1939L259.396 13.8061ZM0.420017 20.855C-0.596215 35.6753 -0.0601235 58.3026 5.33464 77.9076C8.02659 87.6904 12.234 97.8703 19.041 105.911C26.194 114.361 36.2873 120.428 49.2519 120.681L49.8359 90.6865C46.8596 90.6286 44.4753 89.5249 41.9382 86.5278C39.0549 83.1219 36.3593 77.5791 34.2595 69.9483C30.0708 54.7261 29.4682 35.7626 30.3497 22.9073L0.420017 20.855ZM49.2519 120.681C74.6192 121.175 90.3496 100.392 99.0849 83.0953C108.392 64.6649 113.585 43.0217 115.632 28.6525L85.9323 24.4212C84.184 36.6929 79.6984 54.9335 72.306 69.5716C64.3414 85.3428 56.3502 90.8134 49.8359 90.6865L49.2519 120.681ZM85.7826 26.6239C85.8739 42.3662 87.9731 66.2441 94.3455 86.6286C97.5137 96.7635 102.082 107.174 108.889 115.271C115.972 123.696 126.148 130.264 139.39 129.992L138.774 99.9983C136.902 100.037 134.756 99.4203 131.852 95.9656C128.671 92.1825 125.586 86.0168 122.979 77.6776C117.801 61.1139 115.863 40.4523 115.782 26.4499L85.7826 26.6239ZM139.39 129.992C152.351 129.726 162.379 123.092 169.544 114.889C176.533 106.887 181.526 96.6597 185.163 86.5877C192.461 66.3744 195.676 42.8484 196.501 27.3326L166.543 25.7411C165.814 39.4528 162.923 59.8456 156.946 76.3994C153.945 84.7109 150.508 91.0789 146.949 95.1544C143.565 99.0289 140.925 99.9541 138.774 99.9983L139.39 129.992ZM166.531 26.0106C165.99 41.4224 166.684 64.8262 170.787 84.8359C172.812 94.716 175.902 104.981 180.893 113.144C185.915 121.359 194.623 129.995 207.917 129.995L207.917 99.9952C209.411 99.9952 208.79 101.26 206.489 97.4958C204.156 93.6808 201.928 87.3594 200.175 78.8107C196.721 61.9628 196.018 41.1375 196.513 27.0631L166.531 26.0106ZM207.917 129.995C225.978 129.995 238.062 119.342 245.334 106.972C252.311 95.1027 255.836 80.33 257.721 67.1168C259.646 53.6293 260.051 40.3341 259.995 30.5394C259.967 25.6087 259.822 21.4884 259.682 18.5767C259.612 17.1194 259.543 15.9606 259.491 15.1499C259.464 14.7444 259.442 14.4257 259.425 14.1997C259.417 14.0867 259.411 13.9969 259.406 13.9311C259.403 13.8982 259.401 13.8712 259.399 13.8504C259.398 13.8399 259.398 13.831 259.397 13.8236C259.397 13.82 259.397 13.8156 259.396 13.8137C259.396 13.8097 259.396 13.8061 244.443 15C229.491 16.1939 229.491 16.191 229.491 16.1886C229.491 16.1882 229.49 16.1861 229.49 16.1855C229.49 16.1842 229.49 16.1844 229.49 16.1861C229.491 16.1894 229.491 16.1987 229.492 16.2139C229.495 16.2441 229.499 16.2978 229.504 16.374C229.515 16.5264 229.533 16.7692 229.554 17.0961C229.596 17.7501 229.655 18.7397 229.717 20.0166C229.84 22.5734 229.971 26.2652 229.996 30.7091C230.046 39.6634 229.665 51.3671 228.022 62.8783C226.34 74.664 223.515 84.89 219.471 91.7694C215.721 98.1492 212.112 99.9952 207.917 99.9952L207.917 129.995Z" fill="#FF323A"/>
</svg>
