<svg width="160" height="277" viewBox="0 0 160 277" fill="none" xmlns="http://www.w3.org/2000/svg">
<path id="m vec1" d="M0.59655 261.686C0.423089 269.968 6.99673 276.823 15.2792 276.997C23.5616 277.17 30.4165 270.597 30.59 262.314L0.59655 261.686ZM17.0875 190.654L2.09621 190.142L2.09283 190.241L2.09076 190.34L17.0875 190.654ZM76.3577 159.998L61.3713 160.635L76.3577 159.998ZM80.8404 259.77L65.8564 260.463C66.2345 268.645 73.1066 275.011 81.2939 274.764C89.4812 274.516 95.9559 267.746 95.8388 259.556L80.8404 259.77ZM88.8095 56.3234L74.0107 53.8747L88.8095 56.3234ZM118.694 16.1914L120.823 1.3434L118.694 16.1914ZM129.605 260.353C129.926 268.631 136.898 275.081 145.176 274.759C153.454 274.437 159.904 267.466 159.582 259.188L129.605 260.353ZM30.59 262.314L32.0842 190.968L2.09076 190.34L0.59655 261.686L30.59 262.314ZM17.0875 190.654C32.0787 191.166 32.0787 191.166 32.0788 191.165C32.0788 191.164 32.0788 191.163 32.0789 191.162C32.079 191.159 32.0791 191.155 32.0793 191.15C32.0797 191.139 32.0802 191.123 32.0809 191.102C32.0824 191.059 32.0845 190.996 32.0874 190.912C32.0931 190.745 32.1015 190.497 32.1125 190.173C32.1344 189.524 32.1666 188.57 32.2075 187.348C32.2893 184.904 32.4062 181.385 32.5464 177.087C32.8269 168.491 33.2009 156.771 33.575 144.283C34.3195 119.426 35.0759 91.1578 35.0759 78.619H5.07589C5.07589 90.6054 4.3381 118.355 3.5884 143.384C3.21537 155.839 2.84227 167.53 2.56239 176.108C2.42246 180.397 2.30587 183.907 2.22428 186.344C2.18348 187.563 2.15144 188.513 2.12961 189.158C2.11869 189.481 2.11033 189.727 2.1047 189.893C2.10189 189.976 2.09976 190.038 2.09834 190.08C2.09762 190.101 2.09709 190.116 2.09673 190.127C2.09656 190.132 2.09642 190.136 2.09634 190.139C2.09629 190.14 2.09626 190.141 2.09624 190.141C2.09622 190.142 2.09621 190.142 17.0875 190.654ZM35.0759 78.619C35.0759 65.7891 35.1829 53.3567 37.7159 44.1303C38.9382 39.6778 40.3712 37.4228 41.3968 36.3976C42.0009 35.7937 42.8796 35.0932 45.4774 35.0932V5.09321C35.3745 5.09321 26.7276 8.64284 20.1875 15.1805C14.0689 21.2968 10.7391 29.0748 8.78627 36.1882C4.96883 50.0934 5.07589 66.9238 5.07589 78.619H35.0759ZM45.4774 35.0932C47.1812 35.0932 48.0184 35.5226 48.6136 35.96C49.3931 36.5329 50.4587 37.6889 51.5411 39.8671C53.8318 44.4766 54.8828 51.0141 54.8828 56.3234H84.8828C84.8828 48.2555 83.4563 36.6778 78.4068 26.5166C73.081 15.7994 62.6351 5.09321 45.4774 5.09321V35.0932ZM54.8828 56.3234C54.8828 63.7163 56.198 81.6621 57.5988 101.088C59.0354 121.009 60.6355 143.344 61.3713 160.635L91.3442 159.36C90.5858 141.536 88.9485 118.723 87.5211 98.9299C86.0581 78.6416 84.8828 62.3079 84.8828 56.3234H54.8828ZM61.3713 160.635C62.568 188.759 64.8603 238.912 65.8564 260.463L95.8244 259.078C94.8282 237.524 92.5382 187.422 91.3442 159.36L61.3713 160.635ZM80.8404 259.77C95.8388 259.556 95.8388 259.556 95.8388 259.555C95.8388 259.555 95.8388 259.554 95.8388 259.553C95.8388 259.551 95.8387 259.548 95.8387 259.544C95.8385 259.535 95.8384 259.523 95.8381 259.506C95.8376 259.473 95.8369 259.423 95.836 259.357C95.8341 259.224 95.8313 259.027 95.8277 258.769C95.8204 258.253 95.8097 257.491 95.7961 256.51C95.7689 254.548 95.73 251.712 95.6834 248.214C95.5901 241.217 95.4657 231.575 95.3413 220.995C95.0921 199.804 94.8442 174.946 94.8442 159.998H64.8442C64.8442 175.149 65.0944 200.177 65.3433 221.348C65.468 231.948 65.5926 241.606 65.6861 248.614C65.7328 252.118 65.7717 254.96 65.799 256.926C65.8126 257.909 65.8234 258.673 65.8307 259.192C65.8343 259.451 65.8371 259.649 65.839 259.783C65.84 259.849 65.8407 259.9 65.8412 259.933C65.8414 259.95 65.8416 259.963 65.8417 259.972C65.8418 259.976 65.8418 259.979 65.8419 259.981C65.8419 259.983 65.8419 259.983 65.8419 259.984C65.8419 259.985 65.8419 259.985 80.8404 259.77ZM94.8442 159.998C94.8442 130.925 100.487 77.6339 103.608 58.7722L74.0107 53.8747C70.6985 73.8914 64.8442 128.873 64.8442 159.998H94.8442ZM103.608 58.7722C104.734 51.9662 107.027 43.2004 110.551 36.8967C114.255 30.2701 116.292 31.0004 116.564 31.0395L120.823 1.3434C101.822 -1.38201 90.1615 11.8893 84.3651 22.2572C78.3882 32.9481 75.3749 45.6306 74.0107 53.8747L103.608 58.7722ZM116.564 31.0395C119.549 31.4676 121.291 32.7872 122.966 36.8048C124.97 41.6106 125.636 47.7916 126.156 54.1937L156.058 51.7647C155.581 45.9042 154.753 35.0845 150.655 25.2585C146.229 14.6445 137.263 3.70142 120.823 1.3434L116.564 31.0395ZM126.156 54.1937C126.586 59.4874 126.608 80.0272 126.481 102.362C126.357 124.05 126.107 146.589 126.107 154.424H156.107C156.107 146.652 156.354 124.6 156.48 102.533C156.602 81.1126 156.624 58.7335 156.058 51.7647L126.156 54.1937ZM126.107 154.424C126.107 162.571 126.994 189.274 127.86 213.486C128.296 225.692 128.732 237.407 129.059 246.071C129.223 250.403 129.359 253.972 129.454 256.459C129.502 257.703 129.54 258.675 129.565 259.338C129.578 259.669 129.588 259.922 129.595 260.093C129.598 260.179 129.6 260.243 129.602 260.287C129.603 260.309 129.603 260.325 129.604 260.336C129.604 260.341 129.604 260.346 129.604 260.348C129.604 260.35 129.604 260.351 129.605 260.352C129.605 260.352 129.605 260.353 144.593 259.77C159.582 259.188 159.582 259.188 159.582 259.187C159.582 259.186 159.582 259.186 159.582 259.184C159.582 259.182 159.582 259.177 159.581 259.172C159.581 259.161 159.58 259.145 159.579 259.124C159.578 259.081 159.575 259.017 159.572 258.932C159.565 258.762 159.556 258.51 159.543 258.18C159.517 257.52 159.48 256.55 159.432 255.309C159.337 252.827 159.201 249.264 159.038 244.939C158.711 236.288 158.276 224.594 157.84 212.414C156.963 187.854 156.107 161.884 156.107 154.424H126.107Z" fill="#FF323A"/>
</svg>
