<svg width="466" height="898" viewBox="0 0 466 898" fill="none" xmlns="http://www.w3.org/2000/svg">
<path fill-rule="evenodd" clip-rule="evenodd" d="M312.984 343.545C308.334 403.097 304.614 467.516 304.614 512.27C304.614 557.36 305.229 632.459 305.848 696.597C306.157 728.599 306.467 757.763 306.699 778.926C306.815 789.507 306.911 798.087 306.979 804.019C307.013 806.985 307.039 809.29 307.057 810.851L307.085 813.219L307.085 813.226C307.085 813.227 307.085 813.228 234.662 814.178L307.085 813.228C307.576 855.075 276.16 889.578 236.564 890.677C196.968 891.776 163.881 859.063 162.293 817.246C159.816 752.035 154.115 600.238 151.138 515.095C151.113 514.388 151.088 513.678 151.062 512.966C150.563 532.351 150.097 550.009 149.704 564.667C149.355 577.68 149.064 588.333 148.86 595.735C148.759 599.436 148.678 602.325 148.624 604.29L148.552 606.862L144.844 822.315C144.117 864.572 111.106 898.206 71.1116 897.437C31.1173 896.669 -0.714997 861.79 0.0122159 819.533L3.73504 603.205L3.74734 602.767L76.1436 605.035C3.74734 602.767 3.74736 602.766 3.74741 602.765L3.83021 599.796C3.88443 597.846 3.96403 594.973 4.06539 591.288C4.26812 583.919 4.55786 573.304 4.9056 560.333C5.60117 534.387 6.52835 499.03 7.45529 461.368C9.32236 385.508 11.1461 301.904 11.1461 266.021C11.1461 264.801 11.1456 263.557 11.1451 262.29C11.1313 227.67 11.1106 175.804 21.0147 131.901C26.2193 108.829 35.7472 80.0543 55.5367 55.9798C77.7584 28.9465 109.339 12.3988 146.734 12.3988C184.313 12.3988 211.747 28.8055 231.073 49.5215C237.073 41.4694 244.111 33.6164 252.37 26.5819C274.849 7.43458 305.482 -4.5123 340.589 1.61569C401.227 12.2005 429.832 60.658 441.933 95.9735C453.157 128.731 455.489 163.875 456.665 181.612C456.698 182.105 456.73 182.586 456.761 183.052C458.826 213.985 457.852 354.011 457.269 437.975C457.085 464.366 456.94 485.219 456.94 495.404C456.94 517.494 459.05 595.567 461.24 670.127C462.322 706.963 463.404 742.335 464.216 768.503C464.622 781.585 464.96 792.363 465.197 799.869C465.315 803.622 465.408 806.556 465.471 808.551L465.568 811.595C465.568 811.597 465.568 811.598 393.181 814.178C320.794 816.757 320.794 816.756 320.794 816.754L320.794 816.744L320.696 813.681C320.633 811.676 320.539 808.73 320.421 804.965C320.183 797.436 319.844 786.631 319.437 773.517C318.624 747.294 317.539 711.828 316.453 674.874C314.309 601.853 312.084 520.539 312.084 495.404C312.084 481.138 312.267 454.441 312.486 422.533C312.653 398.17 312.841 370.77 312.984 343.545ZM393.181 814.178L320.794 816.757C322.143 858.997 355.645 892.084 395.623 890.66C435.601 889.235 466.917 853.838 465.568 811.598L393.181 814.178ZM127.433 156.184C127.406 156.143 127.393 156.122 127.393 156.121C127.393 156.121 127.407 156.141 127.433 156.184Z" fill="#FF8C35" style="mix-blend-mode:multiply"/>
</svg>
