<svg width="519" height="852" viewBox="0 0 519 852" fill="none" xmlns="http://www.w3.org/2000/svg">
<path fill-rule="evenodd" clip-rule="evenodd" d="M358.904 197.699C358.545 199.574 358.222 201.389 357.934 203.126C349.234 255.605 333.359 405.575 333.359 486.171C333.359 528.531 334.064 599.153 334.775 659.538C335.13 689.654 335.485 717.1 335.751 737.018C335.884 746.976 335.995 755.049 336.073 760.632C336.111 763.423 336.142 765.591 336.163 767.06L336.194 769.293C336.194 769.294 336.194 769.295 261.202 770.369L336.194 769.295C336.781 810.245 304.409 844.094 263.474 845.335C222.538 846.575 188.177 814.749 186.282 773.838C183.44 712.453 176.895 569.54 173.477 489.366C171.402 440.685 166.876 377.581 162.766 320.7C162.579 318.111 162.392 315.526 162.206 312.948C162.141 312.05 162.076 311.153 162.011 310.257C161.189 349.243 159.83 397.887 158.495 442.378C157.426 477.989 156.358 511.401 155.557 535.905C155.156 548.159 154.822 558.191 154.589 565.162C154.472 568.647 154.38 571.368 154.317 573.219L154.237 575.56L149.984 778.293C149.115 819.706 114.839 852.572 73.4268 851.703C32.0145 850.835 -0.852331 816.559 0.0165957 775.147L4.29116 571.426L4.30812 570.93L79.2643 573.495C4.30811 570.93 4.30814 570.93 4.30819 570.928L4.40309 568.137C4.46527 566.303 4.55658 563.6 4.67286 560.133C4.90544 553.199 5.23786 543.211 5.63684 531.005C6.43494 506.588 7.49872 473.317 8.56217 437.879C10.7072 366.396 12.7926 287.913 12.7926 254.368C12.7926 253.107 12.7918 251.815 12.7909 250.493C12.7702 218.153 12.7379 167.834 24.5394 124.927C30.9044 101.785 42.457 73.6839 65.4011 50.7912C90.4448 25.8036 123.442 12.6593 160.283 12.6593C204.117 12.6593 236.21 31.4646 258.208 55.3075C281.483 25.2135 321.066 -6.11447 379.856 2.30231C441.154 11.0779 474.521 52.5338 490.134 89.9054C503.669 122.303 506.468 156.98 507.82 173.739C507.862 174.26 507.903 174.764 507.943 175.25C509.706 196.91 509.597 262.643 509.255 322.669C509.078 353.705 508.818 384.505 508.6 410.436C508.373 437.369 508.19 459.051 508.19 470.294C508.19 490.8 510.598 563.986 513.117 634.318C514.358 668.983 515.6 702.271 516.531 726.899C516.997 739.211 517.385 749.354 517.657 756.417C517.759 759.081 517.845 761.306 517.912 763.044L518.082 767.441L518.083 767.45C518.083 767.451 518.083 767.452 443.14 770.369C368.196 773.286 368.196 773.285 368.196 773.283L368.196 773.273L368.084 770.388C368.011 768.499 367.904 765.725 367.767 762.18C367.495 755.09 367.106 744.916 366.639 732.569C365.705 707.879 364.459 674.484 363.213 639.687C360.757 571.095 358.19 494.244 358.19 470.294C358.19 458.727 358.381 435.853 358.615 407.979C358.833 381.911 359.088 351.47 359.257 321.814C359.563 268.139 359.54 220.047 358.904 197.699ZM350.692 145.609C350.692 145.609 350.699 145.619 350.712 145.64C350.698 145.62 350.692 145.609 350.692 145.609ZM443.14 770.369L368.196 773.286C369.807 814.676 404.667 846.923 446.057 845.312C487.447 843.701 519.694 808.842 518.083 767.452L443.14 770.369ZM147.799 156.675C147.8 156.674 147.816 156.694 147.846 156.737C147.814 156.697 147.799 156.675 147.799 156.675Z" fill="#FF323A" style="mix-blend-mode:multiply"/>
</svg>
