<svg width="441" height="851" viewBox="0 0 441 851" fill="none" xmlns="http://www.w3.org/2000/svg">
<g style="mix-blend-mode:multiply">
<path fill-rule="evenodd" clip-rule="evenodd" d="M397.728 74.5124C397.997 115.933 364.637 149.729 323.217 149.998C288.436 150.225 237.271 156.689 197.411 172.86C176.722 181.253 164.999 189.413 158.404 196.599C169.764 192.157 180.958 188.536 191.68 185.689C234.498 174.318 281.082 171.311 321.243 180.119C355.155 187.556 420.777 214.107 424.805 287.267C426.762 322.801 411.107 351.926 389.856 371.37C371.841 387.853 350.477 397.159 331.947 402.617C351.63 405.33 374.839 411.642 395.454 426.118C420.214 443.503 439.301 471.852 440.611 508.267C441.915 544.513 425.084 573.513 403.521 592.472C383.787 609.823 360.253 619.11 340.136 624.277C299.469 634.723 251.149 633.874 206.273 624.58C193.274 621.888 179.921 618.354 166.55 613.871C155.71 628.291 150.161 643.725 150.161 658.936C150.161 676.645 154.965 682.277 156.869 684.3C160.135 687.772 167.879 693.169 184.477 696.907C219.468 704.787 267.947 699.461 303.184 689.949C343.174 679.155 384.343 702.822 395.138 742.812C405.932 782.802 382.264 823.972 342.274 834.766C294.988 847.53 219.684 858.592 151.522 843.242C116.542 835.365 77.8681 819.242 47.6091 787.073C15.9878 753.456 0.161211 709.326 0.161211 658.936C0.161211 607.51 16.694 564.679 41.7639 529.775C16.6275 497.347 0.161211 456.384 0.161211 407.541C0.161211 367.488 10.0829 333.422 26.1882 304.773C9.80004 279.157 -0.580908 248.123 0.177614 211.858C2.2808 111.304 80.3414 58.4803 141.02 33.8631C203.98 8.32054 275.454 0.305803 322.241 0.00158884C363.662 -0.267736 397.458 33.0919 397.728 74.5124ZM151.542 394.723C150.619 398.933 150.161 403.217 150.161 407.541C150.161 418.248 152.836 427.264 158.533 435.513C170.732 429.635 182.759 424.673 194.244 420.595C205.114 416.736 216.247 413.354 227.48 410.525C218.282 409.643 209.152 408.405 200.194 406.843C184.377 404.086 167.93 400.116 151.542 394.723ZM314.701 551.843C314.699 551.844 314.637 551.827 314.519 551.786C314.644 551.821 314.703 551.841 314.701 551.843ZM294.813 328.249C294.772 328.264 294.313 328.122 293.561 327.775C294.478 328.06 294.854 328.234 294.813 328.249ZM292.715 257.62C292.78 257.586 292.814 257.571 292.815 257.571C292.815 257.572 292.783 257.589 292.715 257.62Z" fill="#3B7DF3"/>
</g>
</svg>
