<svg width="461" height="898" viewBox="0 0 461 898" fill="none" xmlns="http://www.w3.org/2000/svg">
<path fill-rule="evenodd" clip-rule="evenodd" d="M415.756 79.4808C416.039 123.663 380.903 159.712 337.277 160C301.243 160.237 248.254 167.028 207.027 183.976C188.967 191.4 177.592 198.613 170.45 205.138C180.653 201.278 190.691 198.064 200.358 195.463C244.963 183.46 293.535 180.272 335.463 189.589C370.829 197.449 439.654 225.602 443.878 303.34C445.93 341.086 429.513 372.032 407.239 392.682C389.792 408.858 369.365 418.506 351.092 424.434C370.61 427.638 392.932 434.425 412.944 448.663C438.906 467.134 458.922 497.261 460.296 535.945C461.663 574.449 444.014 605.259 421.416 625.39C400.745 643.806 376.12 653.642 355.125 659.106C312.681 670.153 262.313 669.245 215.576 659.437C202.287 656.648 188.639 653.003 174.963 648.393C164.135 663.232 158.622 679.037 158.622 694.55C158.622 712.966 163.539 718.624 165.306 720.527C168.503 723.972 176.319 729.57 193.417 733.471C229.51 741.707 279.659 736.146 316.166 726.16C358.285 714.64 401.65 739.88 413.025 782.535C424.4 825.189 399.478 869.106 357.359 880.626C308.155 894.084 229.737 905.77 158.69 889.558C122.218 881.236 81.8212 864.186 50.1982 830.121C17.1443 794.515 0.633284 747.802 0.633284 694.55C0.633284 640.479 17.6912 595.409 43.591 558.638C17.6199 524.441 0.633284 481.322 0.633284 429.976C0.633284 387.869 10.8666 352.025 27.4956 321.849C10.5684 294.838 -0.136903 262.16 0.650543 224.012C2.84801 117.557 84.4279 61.6948 147.606 35.7235C213.172 8.77069 287.562 0.32372 336.249 0.00294982C379.875 -0.28448 415.472 35.299 415.756 79.4808ZM159.791 417.889C159.009 421.871 158.622 425.908 158.622 429.976C158.622 440.675 161.164 449.73 166.607 458.034C179.019 452.013 191.249 446.915 202.934 442.712C212.434 439.294 222.129 436.231 231.919 433.568C224.3 432.705 216.741 431.607 209.298 430.292C193.205 427.449 176.479 423.385 159.791 417.889ZM328.112 582.865C328.11 582.867 328.034 582.846 327.89 582.796C328.042 582.838 328.114 582.863 328.112 582.865ZM307.361 347.511C307.321 347.526 306.859 347.381 306.096 347.032C307.02 347.321 307.401 347.496 307.361 347.511ZM305.081 271.249C305.169 271.203 305.215 271.181 305.216 271.182C305.217 271.183 305.173 271.206 305.081 271.249Z" fill="#75E658"/>
</svg>
