<svg width="461" height="898" viewBox="0 0 461 898" fill="none" xmlns="http://www.w3.org/2000/svg">
<path fill-rule="evenodd" clip-rule="evenodd" d="M182.691 118.829C182.686 118.837 182.682 118.845 182.677 118.855C182.599 118.997 182.401 119.366 182.101 119.944C181.497 121.104 180.496 123.078 179.24 125.73C176.699 131.097 173.284 138.892 170.032 148.085C162.94 168.134 159.279 187.449 160.635 201.303C161.631 211.471 165.473 217.279 169.653 221.454C172.044 223.842 174.683 225.765 177.076 227.145C178.753 228.113 179.817 228.534 180.004 228.611C193.766 232.536 205.911 239.97 215.488 249.847C215.303 248.717 215.124 247.585 214.95 246.452C205.118 182.367 222.113 127.344 239.248 90.7492C247.949 72.1659 257.204 57.1936 264.453 46.6415C268.102 41.3293 271.313 37.0343 273.797 33.8539C275.041 32.2609 276.109 30.9388 276.966 29.8997C277.394 29.3799 277.771 28.9301 278.091 28.5517C278.251 28.3625 278.397 28.1911 278.528 28.0376C278.594 27.9609 278.656 27.8886 278.714 27.8209L278.799 27.7226L278.839 27.676C278.858 27.6536 278.878 27.6315 338.002 78.8513L278.878 27.6311C307.807 -5.76194 358.328 -9.38101 391.721 19.5477C424.907 48.2967 428.687 98.3714 400.34 131.767C400.261 131.865 400.112 132.051 399.901 132.321C399.231 133.18 397.967 134.847 396.329 137.232C393.003 142.074 388.435 149.432 384.145 158.595C375.296 177.492 369.631 199.623 373.093 222.19C376.077 241.637 380.137 253.206 383.037 259.514C404.881 265.473 423.703 280.583 433.992 301.815C448.822 332.42 442.68 369.056 418.681 393.152C411.735 400.126 399.032 415.19 388.582 433.073C377.397 452.213 374.019 465.663 374.019 471.72C374.019 471.711 374.022 471.727 374.03 471.77C374.172 472.532 375.872 481.647 389.064 498.332C401.587 514.171 417.25 527.6 426.288 533.986C445.871 547.821 458.216 569.711 459.923 593.628C461.593 617.034 452.903 639.965 436.203 656.377C435.916 656.736 435.291 657.545 434.392 658.881C432.476 661.729 430.037 665.914 427.674 671.203C422.887 681.915 419.338 695.034 419.338 709.119C419.338 716.761 422.4 726.076 428.246 735.774C430.939 740.241 433.631 743.789 435.473 746.023C436.339 747.073 436.948 747.748 437.18 748.001C467.803 779.138 467.808 829.203 436.994 860.345C405.919 891.751 355.269 892.019 323.863 860.944L378.216 806.013C323.863 860.944 323.844 860.925 323.825 860.907L323.786 860.868L323.705 860.787L323.531 860.614C323.409 860.492 323.278 860.36 323.136 860.216C322.852 859.929 322.527 859.598 322.165 859.223C321.44 858.474 320.561 857.548 319.551 856.451C317.534 854.263 314.967 851.368 312.039 847.817C306.234 840.778 298.728 830.823 291.225 818.376C276.677 794.244 259.344 756.079 259.344 709.119C259.344 673.845 266.966 641.677 277.942 614.527C273.049 609.127 268.224 603.462 263.56 597.563C241.605 569.794 214.025 525.31 214.025 471.72C214.025 424.363 233.307 381.677 250.446 352.348C250.768 351.797 251.091 351.247 251.416 350.699C245.844 341.763 240.818 332.144 236.354 321.98C232.075 342.342 219.926 360.653 201.885 372.467C198.619 374.605 187.297 383.909 177.209 399.607C167.672 414.448 161.016 432.175 161.016 452.431C161.016 472.459 167.514 488.652 176.182 501.472C180.594 507.997 185.43 513.408 189.839 517.532C192.021 519.573 193.963 521.172 195.513 522.34C196.281 522.918 196.907 523.357 197.371 523.667C197.842 523.981 198.085 524.122 198.082 524.12C223.237 538.654 238.536 565.683 238.048 594.731C237.56 623.778 221.363 650.278 195.734 663.959C195.773 663.938 195.734 663.966 195.625 664.044C194.668 664.725 188.326 669.241 182.473 678.183C176.854 686.769 172.144 698.665 172.998 715.438C173.562 726.519 177.952 733.124 183.135 738.238C185.972 741.038 188.817 743.061 190.716 744.244C191.252 744.578 191.655 744.809 191.888 744.939C231.08 763.202 248.77 809.498 231.407 849.371C213.768 889.878 166.632 908.417 126.124 890.778L157.238 819.325C126.124 890.777 126.09 890.762 126.055 890.747L125.984 890.717L125.838 890.652C125.739 890.609 125.635 890.563 125.527 890.515C125.387 890.453 125.241 890.387 125.087 890.318C125.004 890.28 124.919 890.242 124.832 890.202C124.336 889.977 123.775 889.718 123.154 889.424C121.914 888.837 120.426 888.108 118.725 887.23C115.334 885.48 111.038 883.107 106.129 880.05C96.4151 873.999 83.7005 864.895 70.7512 852.115C44.3607 826.071 16.2723 783.711 13.2108 723.573C10.5222 670.758 25.2483 627.641 46.0377 594.553C20.9388 558.897 1.02208 511.285 1.02208 452.431C1.02208 397.866 18.1863 352.15 40.4387 316.532C20.7685 291.385 5.48492 258.59 1.4027 216.891C-3.28368 169.021 8.9168 123.793 19.1973 94.73C24.6316 79.3675 30.2806 66.464 34.632 57.2721C36.8226 52.6447 38.7245 48.8735 40.1628 46.1086C40.8831 44.724 41.4905 43.5852 41.9637 42.7108C42.2003 42.2734 42.4038 41.9015 42.5713 41.5975C42.6551 41.4454 42.73 41.3103 42.7956 41.1923L42.887 41.0282L42.9463 40.9221C42.9553 40.906 42.9643 40.89 112.743 80.0112L42.9643 40.89C64.5703 2.35243 113.326 -11.3733 151.864 10.2327C190.3 31.7821 204.055 80.3393 182.691 118.829ZM190.153 744.155L190.135 744.147L190.088 744.126C190.11 744.136 190.132 744.145 190.153 744.155ZM436.432 747.251L436.454 747.272ZM399.848 132.341L399.842 132.348Z" fill="#FF6EC5"/>
</svg>
